<?xml version="1.0" standalone="no"?>
<!DOCTYPE svg PUBLIC "-//W3C//DTD SVG 20010904//EN"
 "http://www.w3.org/TR/2001/REC-SVG-20010904/DTD/svg10.dtd">
<svg version="1.0" xmlns="http://www.w3.org/2000/svg"
 width="512.000000pt" height="512.000000pt" viewBox="0 0 512.000000 512.000000"
 preserveAspectRatio="xMidYMid meet">

<g transform="translate(0.000000,512.000000) scale(0.100000,-0.100000)"
fill="#000000" stroke="none">
<path d="M872 5100 c-106 -28 -187 -75 -267 -155 -81 -81 -127 -161 -155 -271
-20 -76 -20 -118 -20 -2114 0 -1996 0 -2038 20 -2114 11 -43 34 -105 52 -139
47 -88 156 -194 246 -239 145 -73 32 -69 1847 -66 l1630 3 75 27 c185 68 316
209 377 404 17 56 18 149 18 2124 0 1975 -1 2068 -18 2124 -45 145 -126 257
-242 335 -42 28 -106 61 -143 73 l-67 23 -1640 2 c-1589 2 -1642 1 -1713 -17z
m3353 -327 c54 -28 119 -100 136 -149 21 -58 21 -4070 0 -4128 -17 -49 -82
-121 -136 -149 l-40 -22 -1620 0 c-1591 0 -1621 0 -1660 20 -50 25 -105 80
-130 130 -20 39 -20 74 -23 2060 -2 1403 1 2033 8 2063 21 86 97 166 181 190
22 7 604 10 1639 9 l1605 -2 40 -22z"/>
<path d="M1151 2108 c-19 -13 -44 -36 -55 -51 -21 -28 -21 -39 -24 -553 -2
-506 -2 -525 17 -563 58 -112 224 -113 281 0 17 33 20 59 20 189 l0 150 58 0
c194 1 358 94 434 247 27 55 33 79 36 154 8 161 -50 281 -176 366 -100 68
-139 76 -362 81 -191 3 -196 3 -229 -20z m383 -308 c43 -16 66 -47 66 -89 0
-73 -56 -111 -162 -111 l-48 0 0 105 0 105 59 0 c33 0 71 -4 85 -10z"/>
<path d="M2222 2113 c-18 -9 -43 -30 -55 -47 -22 -31 -22 -32 -25 -561 -2
-383 1 -537 9 -558 27 -65 117 -106 188 -87 31 8 91 58 113 93 0 1 4 89 7 195
l6 193 115 -208 c63 -114 126 -220 141 -235 75 -76 215 -46 254 55 14 37 15
103 13 559 -3 506 -3 517 -24 545 -73 98 -195 98 -268 0 -19 -26 -21 -46 -26
-223 l-5 -194 -109 197 c-124 225 -145 257 -186 278 -38 20 -106 19 -148 -2z"/>
<path d="M3409 2114 c-109 -33 -205 -131 -240 -245 -19 -62 -20 -88 -17 -401
l3 -333 33 -67 c41 -83 120 -158 200 -189 51 -20 78 -23 270 -27 118 -2 234
-1 259 3 56 8 118 61 133 113 13 48 13 416 0 464 -15 53 -77 105 -135 114 -70
10 -169 -1 -207 -23 -18 -10 -43 -37 -55 -59 -41 -72 -24 -148 46 -205 32 -25
41 -39 39 -59 -3 -25 -4 -25 -112 -28 -85 -2 -114 1 -132 13 l-24 15 0 290 c0
249 2 291 16 304 13 14 47 16 217 16 111 0 218 5 239 10 49 14 104 76 113 129
9 53 -25 126 -74 158 -33 22 -41 23 -280 22 -183 0 -258 -4 -292 -15z"/>
</g>
</svg>
