<svg version="1.1" id="Layer_1" xmlns="http://www.w3.org/2000/svg" xmlns:xlink="http://www.w3.org/1999/xlink" x="0px" y="0px"
	 width="100%" viewBox="0 0 204 192" enable-background="new 0 0 204 192" xml:space="preserve">
<path fill="#FDFDFD" opacity="1.000000" stroke="none" 
	d="
M35.000000,193.000000 
	C23.685764,193.000000 12.371527,193.000000 1.058231,193.000000 
	C1.059171,128.999969 1.059171,64.999969 1.059171,1.000000 
	C12.099789,1.000000 23.081236,1.000000 34.707352,1.439794 
	C35.352024,17.707968 35.352024,33.536350 35.352024,49.624203 
	C36.290863,49.300064 36.493282,49.290764 36.599342,49.184910 
	C43.552979,42.244827 50.067036,34.783192 57.559677,28.485748 
	C66.047127,21.352180 71.157112,13.420107 68.879456,1.987226 
	C68.817924,1.678413 68.955353,1.329965 69.000000,1.000000 
	C76.687576,1.000000 84.375153,1.000000 92.356522,1.282689 
	C64.456871,29.837143 36.263435,58.108910 7.668104,86.783691 
	C71.660156,86.783691 134.617996,86.783691 197.575851,86.783691 
	C197.967468,86.268852 198.359100,85.754021 198.750732,85.239182 
	C170.167160,57.159454 141.583588,29.079723 113.000000,0.999996 
	C143.624435,1.000000 174.248871,1.000000 204.936646,1.000000 
	C204.936646,64.999992 204.936646,128.999985 204.936646,193.000000 
	C193.906967,193.000000 182.922150,193.000000 171.286407,192.562347 
	C170.635483,159.198441 170.635483,126.272179 170.635483,93.355057 
	C125.286972,93.355057 80.457748,93.355057 35.421257,93.355057 
	C35.421257,124.838959 35.428913,155.959366 35.403202,187.079758 
	C35.401569,189.053284 35.140419,191.026596 35.000000,193.000000 
z"/>
<path fill="#030303" opacity="1.000000" stroke="none" 
	d="
M35.468658,193.000000 
	C35.140419,191.026596 35.401569,189.053284 35.403202,187.079758 
	C35.428913,155.959366 35.421257,124.838959 35.421257,93.355057 
	C80.457748,93.355057 125.286972,93.355057 170.635483,93.355057 
	C170.635483,126.272179 170.635483,159.198441 170.817749,192.562347 
	C154.312439,193.000000 137.624878,193.000000 120.570740,192.541000 
	C120.204155,177.019897 120.204155,161.957794 120.204155,146.955460 
	C108.386681,146.955460 97.315125,146.955460 86.000000,146.955460 
	C86.000000,162.491211 86.000000,177.745605 86.000000,193.000000 
	C69.312439,193.000000 52.624878,193.000000 35.468658,193.000000 
z"/>
<path fill="#010101" opacity="1.000000" stroke="none" 
	d="
M112.531601,0.999996 
	C141.583588,29.079723 170.167160,57.159454 198.750732,85.239182 
	C198.359100,85.754021 197.967468,86.268852 197.575851,86.783691 
	C134.617996,86.783691 71.660156,86.783691 7.668104,86.783691 
	C36.263435,58.108910 64.456871,29.837143 92.825150,1.282689 
	C99.354401,1.000000 105.708794,1.000000 112.531601,0.999996 
z"/>
<path fill="#FDFDFD" opacity="1.000000" stroke="none" 
	d="
M86.468658,193.000000 
	C86.000000,177.745605 86.000000,162.491211 86.000000,146.955460 
	C97.315125,146.955460 108.386681,146.955460 120.204155,146.955460 
	C120.204155,161.957794 120.204155,177.019897 120.102081,192.541000 
	C108.979103,193.000000 97.958214,193.000000 86.468658,193.000000 
z"/>
<path fill="#060606" opacity="1.000000" stroke="none" 
	d="
M68.531342,1.000000 
	C68.955353,1.329965 68.817924,1.678413 68.879456,1.987226 
	C71.157112,13.420107 66.047127,21.352180 57.559677,28.485748 
	C50.067036,34.783192 43.552979,42.244827 36.599342,49.184910 
	C36.493282,49.290764 36.290863,49.300064 35.352024,49.624203 
	C35.352024,33.536350 35.352024,17.707968 35.176010,1.439794 
	C46.020893,1.000000 57.041790,1.000000 68.531342,1.000000 
z"/>
</svg>